<?xml version="1.0" encoding="UTF-8"?>
<svg id="Layer_1" data-name="Layer 1" xmlns="http://www.w3.org/2000/svg" viewBox="0 0 725.62 681">
  <defs>
    <style>
      .cls-1 {
        fill: #ffd93e;
      }
    </style>
  </defs>
  <path class="cls-1" d="M644.65,84.16l-78.97,141.01-73.82,130.36c-16.41,29-95.65,170.87-103.72,183.16-10.53,16.05-20.08,25.06-37.72,33.13-43.38,19.85-75.81-22.83-95.43-55.74-48.06-80.54-90.19-167.29-135.32-249.67-.43-.75-.35-1.68.18-2.35,25.01-32.32,58.32-59.67,96.7-74.45,1.06-.42,2.15-.83,3.23-1.22,1-.36,2.11.06,2.62.99l111.94,201.9c.8,1.43,2.83,1.49,3.7.11,15.32-24.4,28.38-50.15,41.3-75.88,20.25-40.37,39.9-81.28,64.7-119.12,23.32-35.6,48.66-71.93,87-91.69,27.56-14.2,75.14-24.55,111.76-23.7,1.6.03,2.59,1.75,1.85,3.16Z"/>
  <path class="cls-1" d="M529.2,270.5c-.05.19-91.76,175.99-141.07,268.19-10.53,16.05-20.07,25.06-37.72,33.13-43.38,19.85-75.8-22.83-95.43-55.74-48.05-80.54-90.19-167.29-135.32-249.67-.42-.75-.35-1.68.18-2.35,25.02-32.32,58.32-59.67,96.7-74.45l117.18,216.11c.81,1.49,2.94,1.5,3.77.03l92.63-165.39c.13-.24.31-.46.53-.63,16.92-13.66,36.94-24.77,57.91-30.87,9.6-2.79,46.07-13.31,49.99-.58,1.56,5.09-7.29,54.2-9.35,62.22Z"/>
</svg>